<svg xmlns="http://www.w3.org/2000/svg" xmlns:xlink="http://www.w3.org/1999/xlink" width="500" zoomAndPan="magnify" viewBox="0 0 375 374.999991" height="500" preserveAspectRatio="xMidYMid meet" version="1.0"><path fill="#000000" d="M 103.890625 295.789062 L 178.003906 369.863281 C 183.140625 375 191.597656 375 196.738281 369.863281 L 271.015625 295.789062 C 276.15625 290.652344 276.15625 282.203125 271.015625 277.066406 C 265.875 271.929688 257.417969 271.929688 252.28125 277.066406 L 200.71875 328.601562 L 200.71875 13.257812 C 200.71875 5.964844 194.75 0 187.453125 0 C 180.15625 0 174.1875 5.964844 174.1875 13.257812 L 174.1875 328.4375 L 122.625 276.898438 C 119.972656 274.25 116.65625 273.089844 113.175781 273.089844 C 109.695312 273.089844 106.378906 274.414062 103.726562 276.898438 C 98.75 282.203125 98.75 290.652344 103.890625 295.789062 Z M 103.890625 295.789062 " fill-opacity="1" fill-rule="nonzero"/></svg>