<svg xmlns="http://www.w3.org/2000/svg" xmlns:xlink="http://www.w3.org/1999/xlink" width="500" zoomAndPan="magnify" viewBox="0 0 375 374.999991" height="500" preserveAspectRatio="xMidYMid meet" version="1.0"><path fill="#000000" d="M 79.210938 103.890625 L 5.136719 178.003906 C 0 183.140625 0 191.597656 5.136719 196.738281 L 79.210938 271.015625 C 84.347656 276.15625 92.796875 276.15625 97.933594 271.015625 C 103.070312 265.875 103.070312 257.417969 97.933594 252.28125 L 46.398438 200.71875 L 361.742188 200.71875 C 369.035156 200.71875 375 194.75 375 187.453125 C 375 180.15625 369.035156 174.1875 361.742188 174.1875 L 46.5625 174.1875 L 98.101562 122.625 C 100.75 119.972656 101.910156 116.65625 101.910156 113.175781 C 101.910156 109.695312 100.585938 106.378906 98.101562 103.726562 C 92.796875 98.75 84.347656 98.75 79.210938 103.890625 Z M 79.210938 103.890625 " fill-opacity="1" fill-rule="nonzero"/></svg>