<svg xmlns="http://www.w3.org/2000/svg" xmlns:xlink="http://www.w3.org/1999/xlink" width="500" zoomAndPan="magnify" viewBox="0 0 375 374.999991" height="500" preserveAspectRatio="xMidYMid meet" version="1.0"><defs><clipPath id="526b0c60fd"><path d="M 4.304688 4.304688 L 255 4.304688 L 255 371.054688 L 4.304688 371.054688 Z M 4.304688 4.304688 " clip-rule="nonzero"/></clipPath><clipPath id="e9783ccdcb"><path d="M 287 120 L 371.054688 120 L 371.054688 255 L 287 255 Z M 287 120 " clip-rule="nonzero"/></clipPath></defs><g clip-path="url(#526b0c60fd)"><path fill="#ffffff" d="M 204.351562 371.054688 L 54.316406 371.054688 C 52.679688 371.054688 51.042969 370.976562 49.414062 370.8125 C 47.785156 370.652344 46.167969 370.414062 44.558594 370.09375 C 42.953125 369.773438 41.367188 369.378906 39.796875 368.902344 C 38.230469 368.425781 36.691406 367.875 35.179688 367.25 C 33.664062 366.621094 32.1875 365.921875 30.742188 365.148438 C 29.296875 364.378906 27.894531 363.535156 26.53125 362.625 C 25.167969 361.714844 23.855469 360.742188 22.589844 359.703125 C 21.324219 358.664062 20.109375 357.566406 18.953125 356.40625 C 17.792969 355.25 16.695312 354.035156 15.65625 352.769531 C 14.617188 351.503906 13.644531 350.191406 12.734375 348.828125 C 11.824219 347.464844 10.984375 346.0625 10.210938 344.617188 C 9.4375 343.175781 8.738281 341.695312 8.113281 340.183594 C 7.484375 338.667969 6.933594 337.128906 6.457031 335.5625 C 5.984375 333.992188 5.585938 332.40625 5.265625 330.800781 C 4.945312 329.195312 4.707031 327.574219 4.546875 325.945312 C 4.386719 324.316406 4.304688 322.683594 4.304688 321.042969 L 4.304688 54.316406 C 4.304688 52.679688 4.386719 51.042969 4.546875 49.414062 C 4.707031 47.785156 4.945312 46.167969 5.265625 44.558594 C 5.585938 42.953125 5.984375 41.367188 6.457031 39.800781 C 6.933594 38.230469 7.484375 36.691406 8.113281 35.179688 C 8.738281 33.664062 9.4375 32.1875 10.210938 30.742188 C 10.984375 29.296875 11.824219 27.894531 12.734375 26.53125 C 13.644531 25.167969 14.617188 23.855469 15.65625 22.589844 C 16.695312 21.324219 17.792969 20.109375 18.953125 18.953125 C 20.109375 17.792969 21.324219 16.695312 22.589844 15.65625 C 23.855469 14.617188 25.167969 13.644531 26.53125 12.734375 C 27.894531 11.824219 29.296875 10.984375 30.742188 10.210938 C 32.1875 9.4375 33.664062 8.738281 35.179688 8.113281 C 36.691406 7.484375 38.230469 6.933594 39.800781 6.457031 C 41.367188 5.984375 42.953125 5.585938 44.558594 5.265625 C 46.167969 4.945312 47.785156 4.707031 49.414062 4.546875 C 51.042969 4.386719 52.679688 4.304688 54.316406 4.304688 L 204.351562 4.304688 C 205.988281 4.304688 207.621094 4.386719 209.253906 4.546875 C 210.882812 4.707031 212.5 4.945312 214.105469 5.265625 C 215.714844 5.585938 217.300781 5.984375 218.867188 6.457031 C 220.433594 6.933594 221.976562 7.484375 223.488281 8.113281 C 225.003906 8.738281 226.480469 9.4375 227.925781 10.210938 C 229.371094 10.984375 230.773438 11.824219 232.136719 12.734375 C 233.496094 13.644531 234.8125 14.617188 236.078125 15.65625 C 237.34375 16.695312 238.554688 17.792969 239.714844 18.953125 C 240.871094 20.109375 241.96875 21.324219 243.011719 22.589844 C 244.050781 23.855469 245.023438 25.167969 245.933594 26.53125 C 246.84375 27.894531 247.683594 29.296875 248.457031 30.742188 C 249.230469 32.1875 249.929688 33.664062 250.554688 35.179688 C 251.183594 36.691406 251.734375 38.230469 252.207031 39.800781 C 252.683594 41.367188 253.082031 42.953125 253.402344 44.558594 C 253.71875 46.167969 253.960938 47.785156 254.121094 49.414062 C 254.28125 51.042969 254.363281 52.679688 254.363281 54.316406 L 254.363281 112.664062 C 254.363281 113.210938 254.335938 113.753906 254.28125 114.296875 C 254.226562 114.839844 254.148438 115.378906 254.042969 115.914062 C 253.933594 116.449219 253.800781 116.980469 253.644531 117.503906 C 253.484375 118.023438 253.300781 118.539062 253.09375 119.042969 C 252.882812 119.546875 252.652344 120.039062 252.394531 120.519531 C 252.136719 121.003906 251.855469 121.46875 251.550781 121.925781 C 251.25 122.378906 250.925781 122.816406 250.578125 123.238281 C 250.230469 123.660156 249.867188 124.066406 249.480469 124.449219 C 249.09375 124.835938 248.6875 125.203125 248.265625 125.550781 C 247.84375 125.894531 247.40625 126.21875 246.953125 126.523438 C 246.5 126.828125 246.03125 127.109375 245.550781 127.363281 C 245.066406 127.621094 244.574219 127.855469 244.070312 128.066406 C 243.566406 128.273438 243.054688 128.457031 242.53125 128.617188 C 242.007812 128.773438 241.480469 128.90625 240.945312 129.011719 C 240.40625 129.121094 239.867188 129.199219 239.324219 129.253906 C 238.78125 129.308594 238.238281 129.332031 237.691406 129.332031 C 237.144531 129.332031 236.601562 129.308594 236.058594 129.253906 C 235.515625 129.199219 234.976562 129.121094 234.4375 129.011719 C 233.902344 128.90625 233.375 128.773438 232.851562 128.617188 C 232.328125 128.457031 231.816406 128.273438 231.3125 128.066406 C 230.808594 127.855469 230.316406 127.621094 229.832031 127.363281 C 229.351562 127.109375 228.882812 126.828125 228.429688 126.523438 C 227.976562 126.21875 227.539062 125.894531 227.117188 125.550781 C 226.695312 125.203125 226.289062 124.835938 225.902344 124.449219 C 225.515625 124.066406 225.152344 123.660156 224.804688 123.238281 C 224.457031 122.816406 224.132812 122.378906 223.832031 121.925781 C 223.527344 121.46875 223.246094 121.003906 222.988281 120.519531 C 222.730469 120.039062 222.5 119.546875 222.289062 119.042969 C 222.082031 118.539062 221.898438 118.023438 221.738281 117.503906 C 221.582031 116.980469 221.449219 116.449219 221.339844 115.914062 C 221.234375 115.378906 221.15625 114.839844 221.101562 114.296875 C 221.046875 113.753906 221.019531 113.210938 221.019531 112.664062 L 221.019531 54.316406 C 221.019531 53.769531 220.996094 53.226562 220.941406 52.683594 C 220.886719 52.140625 220.808594 51.601562 220.699219 51.0625 C 220.59375 50.527344 220.460938 50 220.304688 49.476562 C 220.144531 48.953125 219.960938 48.441406 219.75 47.9375 C 219.542969 47.433594 219.308594 46.941406 219.050781 46.457031 C 218.796875 45.976562 218.515625 45.507812 218.210938 45.054688 C 217.90625 44.601562 217.582031 44.164062 217.238281 43.742188 C 216.890625 43.320312 216.523438 42.914062 216.136719 42.527344 C 215.753906 42.144531 215.347656 41.777344 214.925781 41.429688 C 214.503906 41.082031 214.066406 40.757812 213.613281 40.457031 C 213.15625 40.152344 212.691406 39.871094 212.207031 39.613281 C 211.726562 39.355469 211.234375 39.125 210.730469 38.914062 C 210.226562 38.707031 209.710938 38.523438 209.191406 38.363281 C 208.667969 38.207031 208.136719 38.074219 207.601562 37.964844 C 207.066406 37.859375 206.527344 37.78125 205.984375 37.726562 C 205.441406 37.671875 204.894531 37.644531 204.351562 37.644531 L 54.316406 37.644531 C 53.769531 37.644531 53.226562 37.671875 52.683594 37.726562 C 52.140625 37.78125 51.601562 37.859375 51.0625 37.964844 C 50.527344 38.074219 50 38.207031 49.476562 38.363281 C 48.953125 38.523438 48.441406 38.707031 47.9375 38.914062 C 47.433594 39.125 46.941406 39.355469 46.457031 39.613281 C 45.976562 39.871094 45.507812 40.152344 45.054688 40.457031 C 44.601562 40.757812 44.164062 41.082031 43.742188 41.429688 C 43.320312 41.777344 42.914062 42.144531 42.527344 42.527344 C 42.140625 42.914062 41.777344 43.320312 41.429688 43.742188 C 41.082031 44.164062 40.757812 44.601562 40.457031 45.054688 C 40.152344 45.507812 39.871094 45.976562 39.613281 46.457031 C 39.355469 46.941406 39.125 47.433594 38.914062 47.9375 C 38.707031 48.441406 38.523438 48.953125 38.363281 49.476562 C 38.207031 50 38.074219 50.527344 37.964844 51.0625 C 37.859375 51.601562 37.78125 52.140625 37.726562 52.683594 C 37.671875 53.226562 37.644531 53.769531 37.644531 54.316406 L 37.644531 321.042969 C 37.644531 321.589844 37.671875 322.132812 37.726562 322.675781 C 37.78125 323.222656 37.859375 323.761719 37.964844 324.296875 C 38.074219 324.832031 38.207031 325.359375 38.363281 325.882812 C 38.523438 326.40625 38.707031 326.917969 38.914062 327.421875 C 39.125 327.925781 39.355469 328.421875 39.613281 328.902344 C 39.871094 329.382812 40.152344 329.851562 40.457031 330.304688 C 40.757812 330.757812 41.082031 331.199219 41.429688 331.621094 C 41.777344 332.042969 42.140625 332.445312 42.527344 332.832031 C 42.914062 333.21875 43.320312 333.582031 43.742188 333.929688 C 44.164062 334.277344 44.601562 334.601562 45.054688 334.90625 C 45.507812 335.207031 45.976562 335.488281 46.457031 335.746094 C 46.941406 336.003906 47.433594 336.234375 47.9375 336.445312 C 48.441406 336.652344 48.953125 336.835938 49.476562 336.996094 C 50 337.15625 50.527344 337.289062 51.0625 337.394531 C 51.601562 337.5 52.140625 337.582031 52.683594 337.632812 C 53.226562 337.6875 53.769531 337.714844 54.316406 337.714844 L 204.351562 337.714844 C 204.894531 337.714844 205.441406 337.6875 205.984375 337.632812 C 206.527344 337.582031 207.066406 337.5 207.601562 337.394531 C 208.136719 337.289062 208.667969 337.15625 209.191406 336.996094 C 209.710938 336.835938 210.226562 336.652344 210.730469 336.445312 C 211.234375 336.234375 211.726562 336.003906 212.207031 335.746094 C 212.691406 335.488281 213.15625 335.207031 213.613281 334.90625 C 214.066406 334.601562 214.503906 334.277344 214.925781 333.929688 C 215.347656 333.582031 215.753906 333.21875 216.136719 332.832031 C 216.523438 332.445312 216.890625 332.042969 217.238281 331.621094 C 217.582031 331.199219 217.90625 330.757812 218.210938 330.304688 C 218.515625 329.851562 218.796875 329.382812 219.050781 328.902344 C 219.308594 328.421875 219.542969 327.925781 219.75 327.421875 C 219.960938 326.917969 220.144531 326.40625 220.304688 325.882812 C 220.460938 325.359375 220.59375 324.832031 220.699219 324.296875 C 220.808594 323.761719 220.886719 323.222656 220.941406 322.675781 C 220.996094 322.132812 221.019531 321.589844 221.019531 321.042969 L 221.019531 262.695312 C 221.019531 262.152344 221.046875 261.605469 221.101562 261.0625 C 221.15625 260.519531 221.234375 259.980469 221.339844 259.445312 C 221.449219 258.910156 221.582031 258.378906 221.738281 257.859375 C 221.898438 257.335938 222.082031 256.820312 222.289062 256.316406 C 222.5 255.8125 222.730469 255.320312 222.988281 254.839844 C 223.246094 254.355469 223.527344 253.890625 223.832031 253.433594 C 224.132812 252.980469 224.457031 252.542969 224.804688 252.121094 C 225.152344 251.699219 225.515625 251.296875 225.902344 250.910156 C 226.289062 250.523438 226.695312 250.15625 227.117188 249.8125 C 227.539062 249.464844 227.976562 249.140625 228.429688 248.835938 C 228.882812 248.53125 229.351562 248.253906 229.832031 247.996094 C 230.316406 247.738281 230.808594 247.503906 231.3125 247.296875 C 231.816406 247.085938 232.328125 246.902344 232.851562 246.746094 C 233.375 246.585938 233.902344 246.453125 234.4375 246.347656 C 234.976562 246.242188 235.515625 246.160156 236.058594 246.105469 C 236.601562 246.054688 237.144531 246.027344 237.691406 246.027344 C 238.238281 246.027344 238.78125 246.054688 239.324219 246.105469 C 239.867188 246.160156 240.40625 246.242188 240.945312 246.347656 C 241.480469 246.453125 242.007812 246.585938 242.53125 246.746094 C 243.054688 246.902344 243.566406 247.085938 244.070312 247.296875 C 244.574219 247.503906 245.066406 247.738281 245.550781 247.996094 C 246.03125 248.253906 246.5 248.53125 246.953125 248.835938 C 247.40625 249.140625 247.84375 249.464844 248.265625 249.8125 C 248.6875 250.15625 249.09375 250.523438 249.480469 250.910156 C 249.867188 251.296875 250.230469 251.699219 250.578125 252.121094 C 250.925781 252.542969 251.25 252.980469 251.550781 253.433594 C 251.855469 253.890625 252.136719 254.355469 252.394531 254.839844 C 252.652344 255.320312 252.882812 255.8125 253.09375 256.316406 C 253.300781 256.820312 253.484375 257.335938 253.644531 257.859375 C 253.800781 258.378906 253.933594 258.910156 254.042969 259.445312 C 254.148438 259.980469 254.226562 260.519531 254.28125 261.0625 C 254.335938 261.605469 254.363281 262.152344 254.363281 262.695312 L 254.363281 321.042969 C 254.363281 322.683594 254.28125 324.316406 254.121094 325.945312 C 253.960938 327.574219 253.71875 329.195312 253.402344 330.800781 C 253.082031 332.40625 252.683594 333.992188 252.207031 335.5625 C 251.734375 337.128906 251.183594 338.667969 250.554688 340.183594 C 249.929688 341.695312 249.230469 343.175781 248.457031 344.617188 C 247.683594 346.0625 246.84375 347.464844 245.933594 348.828125 C 245.023438 350.191406 244.050781 351.503906 243.011719 352.769531 C 241.96875 354.035156 240.871094 355.25 239.714844 356.40625 C 238.554688 357.566406 237.34375 358.664062 236.078125 359.703125 C 234.8125 360.742188 233.496094 361.714844 232.136719 362.625 C 230.773438 363.535156 229.371094 364.378906 227.925781 365.148438 C 226.480469 365.921875 225.003906 366.621094 223.488281 367.25 C 221.976562 367.875 220.433594 368.425781 218.867188 368.902344 C 217.300781 369.378906 215.714844 369.773438 214.105469 370.09375 C 212.5 370.414062 210.882812 370.652344 209.253906 370.8125 C 207.621094 370.976562 205.988281 371.054688 204.351562 371.054688 Z M 204.351562 371.054688 " fill-opacity="1" fill-rule="nonzero"/></g><path fill="#ffffff" d="M 346.050781 204.351562 L 127.832031 204.351562 C 127.289062 204.351562 126.742188 204.324219 126.199219 204.269531 C 125.65625 204.214844 125.117188 204.136719 124.582031 204.03125 C 124.046875 203.921875 123.515625 203.792969 122.992188 203.632812 C 122.472656 203.472656 121.957031 203.289062 121.453125 203.082031 C 120.949219 202.871094 120.457031 202.640625 119.976562 202.382812 C 119.492188 202.125 119.027344 201.84375 118.570312 201.539062 C 118.117188 201.238281 117.679688 200.914062 117.257812 200.566406 C 116.835938 200.21875 116.429688 199.855469 116.046875 199.46875 C 115.660156 199.082031 115.292969 198.675781 114.945312 198.253906 C 114.601562 197.832031 114.277344 197.394531 113.972656 196.941406 C 113.667969 196.488281 113.386719 196.019531 113.132812 195.539062 C 112.875 195.058594 112.640625 194.5625 112.429688 194.058594 C 112.222656 193.554688 112.039062 193.042969 111.878906 192.519531 C 111.722656 191.996094 111.589844 191.46875 111.484375 190.933594 C 111.375 190.398438 111.296875 189.855469 111.242188 189.3125 C 111.1875 188.769531 111.164062 188.226562 111.164062 187.679688 C 111.164062 187.132812 111.1875 186.589844 111.242188 186.046875 C 111.296875 185.503906 111.375 184.964844 111.484375 184.429688 C 111.589844 183.890625 111.722656 183.363281 111.878906 182.839844 C 112.039062 182.320312 112.222656 181.804688 112.429688 181.300781 C 112.640625 180.796875 112.875 180.304688 113.132812 179.820312 C 113.386719 179.339844 113.667969 178.871094 113.972656 178.417969 C 114.277344 177.964844 114.601562 177.527344 114.945312 177.105469 C 115.292969 176.683594 115.660156 176.277344 116.046875 175.890625 C 116.429688 175.507812 116.835938 175.140625 117.257812 174.792969 C 117.679688 174.445312 118.117188 174.121094 118.570312 173.820312 C 119.027344 173.515625 119.492188 173.234375 119.976562 172.976562 C 120.457031 172.71875 120.949219 172.488281 121.453125 172.277344 C 121.957031 172.070312 122.472656 171.886719 122.992188 171.726562 C 123.515625 171.570312 124.046875 171.4375 124.582031 171.328125 C 125.117188 171.222656 125.65625 171.144531 126.199219 171.089844 C 126.742188 171.035156 127.289062 171.007812 127.832031 171.007812 L 346.050781 171.007812 C 346.59375 171.007812 347.140625 171.035156 347.683594 171.089844 C 348.226562 171.144531 348.765625 171.222656 349.300781 171.328125 C 349.835938 171.4375 350.367188 171.570312 350.886719 171.726562 C 351.410156 171.886719 351.925781 172.070312 352.429688 172.277344 C 352.933594 172.488281 353.425781 172.71875 353.90625 172.976562 C 354.390625 173.234375 354.855469 173.515625 355.3125 173.820312 C 355.765625 174.121094 356.203125 174.445312 356.625 174.792969 C 357.046875 175.140625 357.449219 175.507812 357.835938 175.890625 C 358.222656 176.277344 358.589844 176.683594 358.9375 177.105469 C 359.28125 177.527344 359.605469 177.964844 359.910156 178.417969 C 360.214844 178.871094 360.492188 179.339844 360.75 179.820312 C 361.007812 180.304688 361.242188 180.796875 361.449219 181.300781 C 361.660156 181.804688 361.84375 182.320312 362 182.839844 C 362.160156 183.363281 362.292969 183.890625 362.398438 184.429688 C 362.507812 184.964844 362.585938 185.503906 362.640625 186.046875 C 362.691406 186.589844 362.71875 187.132812 362.71875 187.679688 C 362.71875 188.226562 362.691406 188.769531 362.640625 189.3125 C 362.585938 189.855469 362.507812 190.398438 362.398438 190.933594 C 362.292969 191.46875 362.160156 191.996094 362 192.519531 C 361.84375 193.042969 361.660156 193.554688 361.449219 194.058594 C 361.242188 194.5625 361.007812 195.058594 360.75 195.539062 C 360.492188 196.019531 360.214844 196.488281 359.910156 196.941406 C 359.605469 197.394531 359.28125 197.832031 358.9375 198.253906 C 358.589844 198.675781 358.222656 199.082031 357.835938 199.46875 C 357.449219 199.855469 357.046875 200.21875 356.625 200.566406 C 356.203125 200.914062 355.765625 201.238281 355.3125 201.539062 C 354.855469 201.84375 354.390625 202.125 353.90625 202.382812 C 353.425781 202.640625 352.933594 202.871094 352.429688 203.082031 C 351.925781 203.289062 351.410156 203.472656 350.886719 203.632812 C 350.367188 203.792969 349.835938 203.921875 349.300781 204.03125 C 348.765625 204.136719 348.226562 204.214844 347.683594 204.269531 C 347.140625 204.324219 346.59375 204.351562 346.050781 204.351562 Z M 346.050781 204.351562 " fill-opacity="1" fill-rule="nonzero"/><g clip-path="url(#e9783ccdcb)"><path fill="#ffffff" d="M 304.375 254.363281 C 303.554688 254.359375 302.742188 254.296875 301.933594 254.171875 C 301.128906 254.050781 300.332031 253.867188 299.550781 253.628906 C 298.769531 253.386719 298.011719 253.09375 297.273438 252.742188 C 296.535156 252.390625 295.828125 251.984375 295.148438 251.53125 C 294.46875 251.074219 293.828125 250.570312 293.222656 250.023438 C 292.621094 249.472656 292.058594 248.878906 291.539062 248.246094 C 291.023438 247.613281 290.554688 246.949219 290.136719 246.246094 C 289.714844 245.546875 289.351562 244.816406 289.039062 244.0625 C 288.726562 243.304688 288.46875 242.53125 288.273438 241.738281 C 288.074219 240.945312 287.933594 240.144531 287.851562 239.332031 C 287.773438 238.515625 287.753906 237.703125 287.792969 236.886719 C 287.832031 236.070312 287.929688 235.261719 288.089844 234.457031 C 288.246094 233.65625 288.464844 232.871094 288.738281 232.101562 C 289.011719 231.332031 289.339844 230.585938 289.726562 229.863281 C 290.109375 229.140625 290.542969 228.453125 291.027344 227.792969 C 291.511719 227.136719 292.042969 226.519531 292.621094 225.9375 L 330.796875 187.679688 L 292.539062 149.421875 C 292.152344 149.035156 291.785156 148.628906 291.4375 148.207031 C 291.089844 147.785156 290.765625 147.347656 290.460938 146.894531 C 290.160156 146.441406 289.878906 145.972656 289.621094 145.488281 C 289.363281 145.007812 289.128906 144.515625 288.921875 144.011719 C 288.710938 143.503906 288.527344 142.992188 288.371094 142.46875 C 288.210938 141.945312 288.078125 141.417969 287.972656 140.882812 C 287.867188 140.34375 287.785156 139.804688 287.730469 139.261719 C 287.679688 138.71875 287.652344 138.171875 287.652344 137.628906 C 287.652344 137.082031 287.679688 136.535156 287.730469 135.992188 C 287.785156 135.449219 287.867188 134.910156 287.972656 134.371094 C 288.078125 133.835938 288.210938 133.308594 288.371094 132.785156 C 288.527344 132.261719 288.710938 131.75 288.921875 131.242188 C 289.128906 130.738281 289.363281 130.246094 289.621094 129.765625 C 289.878906 129.28125 290.160156 128.816406 290.460938 128.359375 C 290.765625 127.90625 291.089844 127.46875 291.4375 127.046875 C 291.785156 126.625 292.152344 126.21875 292.539062 125.832031 C 292.921875 125.445312 293.328125 125.078125 293.75 124.734375 C 294.171875 124.386719 294.609375 124.0625 295.066406 123.757812 C 295.519531 123.453125 295.988281 123.175781 296.46875 122.917969 C 296.949219 122.660156 297.445312 122.425781 297.949219 122.21875 C 298.453125 122.007812 298.96875 121.824219 299.488281 121.664062 C 300.011719 121.507812 300.542969 121.375 301.078125 121.269531 C 301.613281 121.160156 302.152344 121.082031 302.695312 121.027344 C 303.242188 120.972656 303.785156 120.949219 304.332031 120.949219 C 304.878906 120.949219 305.421875 120.972656 305.964844 121.027344 C 306.511719 121.082031 307.050781 121.160156 307.585938 121.269531 C 308.121094 121.375 308.652344 121.507812 309.171875 121.664062 C 309.695312 121.824219 310.210938 122.007812 310.714844 122.21875 C 311.21875 122.425781 311.710938 122.660156 312.195312 122.917969 C 312.675781 123.175781 313.144531 123.453125 313.597656 123.757812 C 314.050781 124.0625 314.492188 124.386719 314.914062 124.734375 C 315.335938 125.078125 315.738281 125.445312 316.125 125.832031 L 366.136719 175.84375 C 366.523438 176.230469 366.890625 176.632812 367.238281 177.054688 C 367.585938 177.480469 367.910156 177.917969 368.214844 178.371094 C 368.515625 178.824219 368.796875 179.292969 369.054688 179.773438 C 369.3125 180.257812 369.546875 180.75 369.753906 181.253906 C 369.964844 181.757812 370.148438 182.273438 370.308594 182.796875 C 370.464844 183.320312 370.597656 183.847656 370.707031 184.382812 C 370.8125 184.917969 370.890625 185.460938 370.945312 186.003906 C 371 186.546875 371.027344 187.09375 371.027344 187.636719 C 371.027344 188.183594 371 188.730469 370.945312 189.273438 C 370.890625 189.816406 370.8125 190.355469 370.707031 190.894531 C 370.597656 191.429688 370.464844 191.957031 370.308594 192.480469 C 370.148438 193.003906 369.964844 193.515625 369.753906 194.023438 C 369.546875 194.527344 369.3125 195.019531 369.054688 195.5 C 368.796875 195.984375 368.515625 196.453125 368.214844 196.90625 C 367.910156 197.359375 367.585938 197.796875 367.238281 198.21875 C 366.890625 198.640625 366.523438 199.046875 366.136719 199.433594 L 316.125 249.445312 C 314.570312 251.007812 312.773438 252.21875 310.738281 253.070312 C 308.703125 253.921875 306.582031 254.351562 304.375 254.363281 Z M 304.375 254.363281 " fill-opacity="1" fill-rule="nonzero"/></g></svg>