<svg xmlns="http://www.w3.org/2000/svg" xmlns:xlink="http://www.w3.org/1999/xlink" width="500" zoomAndPan="magnify" viewBox="0 0 375 374.999991" height="500" preserveAspectRatio="xMidYMid meet" version="1.0"><defs><clipPath id="23f57dafe1"><path d="M 1.050781 0 L 373.800781 0 L 373.800781 372.75 L 1.050781 372.75 Z M 1.050781 0 " clip-rule="nonzero"/></clipPath></defs><g clip-path="url(#23f57dafe1)"><path fill="#000000" d="M 13.472656 198.800781 L 175 198.800781 L 175 360.324219 C 175 367.1875 180.554688 372.75 187.425781 372.75 C 194.292969 372.75 199.847656 367.1875 199.847656 360.324219 L 199.847656 198.800781 L 361.375 198.800781 C 368.242188 198.800781 373.800781 193.238281 373.800781 186.375 C 373.800781 179.511719 368.242188 173.949219 361.375 173.949219 L 199.847656 173.949219 L 199.847656 12.425781 C 199.847656 5.5625 194.292969 0 187.425781 0 C 180.554688 0 175 5.5625 175 12.425781 L 175 173.949219 L 13.472656 173.949219 C 6.605469 173.949219 1.050781 179.511719 1.050781 186.375 C 1.050781 193.238281 6.605469 198.800781 13.472656 198.800781 Z M 13.472656 198.800781 " fill-opacity="1" fill-rule="nonzero"/></g></svg>