<svg xmlns="http://www.w3.org/2000/svg" xmlns:xlink="http://www.w3.org/1999/xlink" width="500" zoomAndPan="magnify" viewBox="0 0 375 374.999991" height="500" preserveAspectRatio="xMidYMid meet" version="1.0"><defs><clipPath id="234bdc9196"><path d="M 1.960938 1.960938 L 373.210938 1.960938 L 373.210938 373.210938 L 1.960938 373.210938 Z M 1.960938 1.960938 " clip-rule="nonzero"/></clipPath></defs><g clip-path="url(#234bdc9196)"><path fill="#ffffff" d="M 14.335938 199.960938 L 175.210938 199.960938 L 175.210938 360.835938 C 175.210938 367.671875 180.746094 373.210938 187.585938 373.210938 C 194.425781 373.210938 199.960938 367.671875 199.960938 360.835938 L 199.960938 199.960938 L 360.835938 199.960938 C 367.675781 199.960938 373.210938 194.421875 373.210938 187.585938 C 373.210938 180.753906 367.675781 175.210938 360.835938 175.210938 L 199.960938 175.210938 L 199.960938 14.335938 C 199.960938 7.503906 194.425781 1.960938 187.585938 1.960938 C 180.746094 1.960938 175.210938 7.503906 175.210938 14.335938 L 175.210938 175.210938 L 14.335938 175.210938 C 7.496094 175.210938 1.960938 180.753906 1.960938 187.585938 C 1.960938 194.421875 7.496094 199.960938 14.335938 199.960938 Z M 14.335938 199.960938 " fill-opacity="1" fill-rule="nonzero"/></g></svg>