<svg xmlns="http://www.w3.org/2000/svg" xmlns:xlink="http://www.w3.org/1999/xlink" width="500" zoomAndPan="magnify" viewBox="0 0 375 374.999991" height="500" preserveAspectRatio="xMidYMid meet" version="1.0"><defs><clipPath id="646cd80004"><path d="M 13.125 0 L 361.875 0 L 361.875 375 L 13.125 375 Z M 13.125 0 " clip-rule="nonzero"/></clipPath><clipPath id="147e86b841"><path d="M 13.125 0 L 181 0 L 181 177 L 13.125 177 Z M 13.125 0 " clip-rule="nonzero"/></clipPath><clipPath id="cba153994f"><path d="M 194 198 L 361.875 198 L 361.875 375 L 194 375 Z M 194 198 " clip-rule="nonzero"/></clipPath></defs><rect x="-37.5" width="450" fill="#ffffff" y="-37.499999" height="449.999989" fill-opacity="1"/><rect x="-37.5" width="450" fill="#ffffff" y="-37.499999" height="449.999989" fill-opacity="1"/><g clip-path="url(#646cd80004)"><path fill="#000000" d="M 346.234375 9.054688 L 241.699219 179.390625 L 173.210938 280.199219 L 170.191406 285.019531 L 170.363281 285.308594 L 167.03125 290.859375 L 166.582031 291.316406 L 164.039062 293.882812 L 164.039062 295.878906 L 122.125 365.9375 L 28.789062 365.9375 L 133.371094 195.535156 L 201.5625 94.769531 L 204.570312 89.945312 L 204.390625 89.644531 L 215.449219 71.078125 L 215.902344 70.636719 L 218.605469 68.046875 L 218.605469 65.796875 L 252.441406 9.0625 L 346.234375 9.0625 M 361.890625 0.296875 L 247.457031 0.296875 L 209.835938 63.378906 L 209.835938 64.308594 L 208.519531 65.570312 L 194.179688 89.660156 L 194.300781 89.863281 L 125.992188 190.792969 L 13.125 374.695312 L 127.09375 374.695312 L 172.800781 298.296875 L 172.800781 297.488281 L 173.996094 296.277344 L 180.566406 285.316406 L 180.445312 285.125 L 249.042969 184.140625 Z M 361.890625 0.296875 " fill-opacity="1" fill-rule="nonzero"/></g><g clip-path="url(#147e86b841)"><path fill="#000000" d="M 122.125 9.054688 L 170.070312 89.171875 L 121.765625 160.546875 L 77.734375 88.800781 L 77.652344 88.664062 L 77.5625 88.53125 L 77.265625 88.074219 L 28.78125 9.054688 L 122.125 9.054688 M 127.09375 0.296875 L 13.125 0.296875 L 69.882812 92.792969 L 70.269531 93.386719 L 121.40625 176.710938 L 180.453125 89.464844 Z M 127.09375 0.296875 " fill-opacity="1" fill-rule="nonzero"/></g><g clip-path="url(#cba153994f)"><path fill="#000000" d="M 253.226562 214.402344 L 346.234375 365.929688 L 252.433594 365.929688 L 204.683594 285.839844 L 253.226562 214.402344 M 253.597656 198.265625 L 194.308594 285.542969 L 247.457031 374.703125 L 361.890625 374.703125 Z M 253.597656 198.265625 " fill-opacity="1" fill-rule="nonzero"/></g></svg>