<svg xmlns="http://www.w3.org/2000/svg" xmlns:xlink="http://www.w3.org/1999/xlink" width="500" zoomAndPan="magnify" viewBox="0 0 375 374.999991" height="500" preserveAspectRatio="xMidYMid meet" version="1.0"><defs><clipPath id="a041f80e9c"><path d="M 36.507812 3 L 224 3 L 224 194 L 36.507812 194 Z M 36.507812 3 " clip-rule="nonzero"/></clipPath><clipPath id="ae08be2577"><path d="M 139 122 L 338.757812 122 L 338.757812 342 L 139 342 Z M 139 122 " clip-rule="nonzero"/></clipPath><clipPath id="d1cd876f99"><path d="M 172 190 L 333 190 L 333 371.914062 L 172 371.914062 Z M 172 190 " clip-rule="nonzero"/></clipPath></defs><path fill="#672d91" d="M 55.117188 80.480469 L 109.171875 24.582031 C 124.828125 15.214844 142.476562 8.578125 161.085938 5.261719 L 37.46875 132.84375 C 40.054688 114.109375 46.109375 96.484375 55.117188 80.480469 Z M 55.117188 80.480469 " fill-opacity="1" fill-rule="nonzero"/><g clip-path="url(#a041f80e9c)"><path fill="#ff360c" d="M 36.507812 165.878906 L 194.097656 3.046875 C 204.066406 3.417969 213.886719 4.816406 223.042969 7.175781 L 42.785156 193.683594 C 39.609375 184.464844 37.46875 175.320312 36.507812 165.878906 Z M 36.507812 165.878906 " fill-opacity="1" fill-rule="nonzero"/></g><path fill="#ff4f8f" d="M 52.164062 215.953125 L 77.417969 189.921875 C 81.925781 185.203125 89.53125 185.054688 94.257812 189.554688 C 98.984375 194.273438 99.128906 201.648438 94.476562 206.367188 L 64.496094 237.488281 C 59.992188 230.410156 55.855469 223.183594 52.164062 215.953125 Z M 246.601562 14.996094 C 254.425781 18.09375 261.664062 22 268.53125 26.5 L 150.824219 148.109375 C 146.316406 152.976562 138.710938 152.976562 133.984375 148.476562 C 129.257812 143.976562 129.113281 136.382812 133.765625 131.664062 Z M 246.601562 14.996094 " fill-opacity="1" fill-rule="nonzero"/><path fill="#0b4881" d="M 77.640625 256.074219 L 142.847656 188.449219 L 103.265625 174.363281 C 98.390625 173.402344 95.4375 168.683594 96.398438 163.964844 C 97.359375 159.097656 102.085938 155.925781 106.808594 156.957031 L 162.417969 168.3125 L 202.144531 127.238281 C 206.648438 122.519531 214.253906 122.371094 218.980469 127.015625 C 223.707031 131.515625 223.855469 138.964844 219.203125 143.832031 L 179.472656 184.90625 L 192.765625 240.070312 C 193.949219 244.789062 190.996094 249.4375 186.34375 250.617188 C 181.46875 251.796875 176.742188 248.847656 175.5625 244.199219 L 160.125 205.113281 L 92.558594 274.730469 C 87.390625 268.535156 82.292969 262.269531 77.640625 256.074219 Z M 286.476562 39.773438 C 292.53125 45.082031 298.21875 50.6875 303.3125 56.808594 L 257.527344 104.15625 C 252.804688 109.023438 245.417969 109.023438 240.691406 104.523438 C 235.964844 100.023438 235.820312 92.429688 240.324219 87.710938 Z M 286.476562 39.773438 " fill-opacity="1" fill-rule="nonzero"/><path fill="#0ce8e6" d="M 107.402344 291.398438 L 143.808594 253.859375 C 148.3125 249.140625 155.917969 248.992188 160.644531 253.492188 C 165.371094 258.210938 165.371094 265.585938 160.867188 270.304688 L 123.867188 308.65625 C 118.332031 302.976562 112.867188 297.296875 107.402344 291.398438 Z M 316.457031 75.171875 C 320.960938 82.179688 324.65625 89.847656 327.832031 97.664062 L 217.210938 212.269531 C 212.484375 216.988281 205.097656 216.988281 200.371094 212.488281 C 195.648438 207.992188 195.5 200.394531 200.003906 195.675781 Z M 316.457031 75.171875 " fill-opacity="1" fill-rule="nonzero"/><g clip-path="url(#ae08be2577)"><path fill="#0b9f13" d="M 139.671875 324.4375 L 335.214844 122.074219 C 337.355469 131.882812 338.539062 142.207031 338.757812 152.605469 L 156.507812 341.105469 C 151.042969 335.644531 145.359375 330.117188 139.671875 324.4375 Z M 139.671875 324.4375 " fill-opacity="1" fill-rule="nonzero"/></g><g clip-path="url(#d1cd876f99)"><path fill="#ffae16" d="M 172.386719 356.738281 L 332.925781 190.953125 C 310.992188 260.71875 233.308594 323.699219 187.449219 371.78125 C 182.722656 366.914062 177.628906 361.828125 172.386719 356.738281 Z M 172.386719 356.738281 " fill-opacity="1" fill-rule="nonzero"/></g></svg>